<?xml version="1.0" encoding="UTF-8" standalone="no"?>
<!-- Created with Inkscape (http://www.inkscape.org/) -->

<svg
   width="100mm"
   height="100mm"
   viewBox="0 0 100 100"
   version="1.1"
   id="svg5"
   sodipodi:docname="game.svg"
   inkscape:version="1.1 (c68e22c387, 2021-05-23)"
   xmlns:inkscape="http://www.inkscape.org/namespaces/inkscape"
   xmlns:sodipodi="http://sodipodi.sourceforge.net/DTD/sodipodi-0.dtd"
   xmlns="http://www.w3.org/2000/svg"
   xmlns:svg="http://www.w3.org/2000/svg">
  <sodipodi:namedview
     id="namedview7"
     pagecolor="#ffffff"
     bordercolor="#666666"
     borderopacity="1.0"
     inkscape:pageshadow="2"
     inkscape:pageopacity="0.0"
     inkscape:pagecheckerboard="0"
     inkscape:document-units="mm"
     showgrid="false"
     inkscape:zoom="1.5536476"
     inkscape:cx="401.9573"
     inkscape:cy="193.4158"
     inkscape:window-width="1842"
     inkscape:window-height="1057"
     inkscape:window-x="70"
     inkscape:window-y="-8"
     inkscape:window-maximized="1"
     inkscape:current-layer="layer1"
     width="20mm" />
  <defs
     id="defs2" />
  <g
     inkscape:label="Слой 1"
     inkscape:groupmode="layer"
     id="layer1">
    <path
       id="path39"
       style="fill:#d38d5f;fill-rule:evenodd;stroke-width:0.264583"
       d="M 188.58789 47.630859 A 146.10777 146.10777 0 0 0 85.275391 90.423828 A 146.10777 146.10777 0 0 0 85.275391 297.05078 A 146.10777 146.10777 0 0 0 291.90234 297.05078 L 188.58789 193.73828 L 291.90234 90.423828 A 146.10777 146.10777 0 0 0 188.58789 47.630859 z M 199.53125 94.615234 A 24.458571 24.458571 0 0 1 223.98828 119.07422 A 24.458571 24.458571 0 0 1 199.53125 143.5332 A 24.458571 24.458571 0 0 1 175.07227 119.07422 A 24.458571 24.458571 0 0 1 199.53125 94.615234 z "
       transform="scale(0.26458333)" />
    <rect
       style="fill:#d38d5f;fill-rule:evenodd;stroke-width:0.264583"
       id="rect108"
       width="17.62586"
       height="17.62586"
       x="72.972771"
       y="42.82999" />
  </g>
</svg>
