<?xml version="1.0" encoding="UTF-8" standalone="no"?>
<!-- Created with Inkscape (http://www.inkscape.org/) -->

<svg
   width="100mm"
   height="100mm"
   viewBox="0 0 100 100"
   version="1.1"
   id="svg2608"
   inkscape:version="1.1 (c68e22c387, 2021-05-23)"
   sodipodi:docname="level.svg"
   xmlns:inkscape="http://www.inkscape.org/namespaces/inkscape"
   xmlns:sodipodi="http://sodipodi.sourceforge.net/DTD/sodipodi-0.dtd"
   xmlns="http://www.w3.org/2000/svg"
   xmlns:svg="http://www.w3.org/2000/svg">
  <sodipodi:namedview
     id="namedview2610"
     pagecolor="#ffffff"
     bordercolor="#666666"
     borderopacity="1.0"
     inkscape:pageshadow="2"
     inkscape:pageopacity="0.0"
     inkscape:pagecheckerboard="0"
     inkscape:document-units="mm"
     showgrid="false"
     width="100mm"
     inkscape:zoom="1.0985947"
     inkscape:cx="347.26181"
     inkscape:cy="286.27481"
     inkscape:window-width="1842"
     inkscape:window-height="1057"
     inkscape:window-x="70"
     inkscape:window-y="-8"
     inkscape:window-maximized="1"
     inkscape:current-layer="layer1" />
  <defs
     id="defs2605" />
  <g
     inkscape:label="Слой 1"
     inkscape:groupmode="layer"
     id="layer1">
    <path
       id="path11495"
       style="fill:#d38d5f;stroke:none;stroke-width:0.845042;stroke-opacity:0"
       d="m 58.39073,2.2962683 5.117203,15.5691437 4.690765,14.271986 5.914301,-7.050457 A 34.457514,34.893614 0 0 1 84.591775,50.006867 34.457514,34.893614 0 0 1 58.39073,83.87565 V 97.71747 A 47.834192,48.439587 0 0 0 97.967021,50.006867 47.834192,48.439587 0 0 0 58.39073,2.2962683 Z M 41.192346,2.4490679 A 47.834192,48.439587 0 0 0 2.2999936,50.006867 47.834192,48.439587 0 0 0 41.192346,97.564666 L 36.012827,81.806179 31.384384,67.723535 25.719381,74.476692 A 34.457514,34.893614 0 0 1 15.676878,50.006867 34.457514,34.893614 0 0 1 41.192346,16.327431 Z" />
    <path
       id="path39"
       style="fill:#d38d5f;fill-rule:evenodd;stroke-width:0.0334966"
       d="m 40.97468,25.285063 a 18.565514,18.429862 0 0 0 -13.127635,5.397853 18.565514,18.429862 0 0 0 0,26.063682 18.565514,18.429862 0 0 0 26.255517,0 L 40.97468,43.71488 54.102562,30.682916 A 18.565514,18.429862 0 0 0 40.97468,25.285063 Z m 1.390541,5.926554 a 3.1078837,3.0851754 0 0 1 3.107689,3.085228 3.1078837,3.0851754 0 0 1 -3.107689,3.085227 3.1078837,3.0851754 0 0 1 -3.107932,-3.085227 3.1078837,3.0851754 0 0 1 3.107932,-3.085228 z" />
    <rect
       style="fill:#d38d5f;fill-rule:evenodd;stroke-width:0.126602"
       id="rect108"
       width="8.4648933"
       height="8.4030428"
       x="52.426598"
       y="39.69595" />
    <rect
       style="fill:#d38d5f;fill-rule:evenodd;stroke-width:0.126602"
       id="rect13907"
       width="8.4648933"
       height="8.4030428"
       x="64.388916"
       y="39.69595" />
    <rect
       style="fill:#d38d5f;fill-rule:evenodd;stroke-width:0.126602"
       id="rect13909"
       width="8.4648933"
       height="8.4030428"
       x="64.388916"
       y="51.570862" />
    <rect
       style="fill:#d38d5f;fill-rule:evenodd;stroke-width:0.126602"
       id="rect13911"
       width="8.4648933"
       height="8.4030428"
       x="64.388916"
       y="63.44577" />
    <rect
       style="fill:#d38d5f;fill-rule:evenodd;stroke-width:0.126602"
       id="rect13913"
       width="8.4648933"
       height="8.4030428"
       x="52.426598"
       y="63.44577" />
  </g>
</svg>
