<?xml version="1.0" encoding="UTF-8" standalone="no"?>
<!-- Created with Inkscape (http://www.inkscape.org/) -->

<svg
   width="100mm"
   height="100mm"
   viewBox="0 0 100 100"
   version="1.1"
   id="svg2608"
   inkscape:version="1.1 (c68e22c387, 2021-05-23)"
   sodipodi:docname="level.svg"
   xmlns:inkscape="http://www.inkscape.org/namespaces/inkscape"
   xmlns:sodipodi="http://sodipodi.sourceforge.net/DTD/sodipodi-0.dtd"
   xmlns="http://www.w3.org/2000/svg"
   xmlns:svg="http://www.w3.org/2000/svg">
  <sodipodi:namedview
     id="namedview2610"
     pagecolor="#ffffff"
     bordercolor="#666666"
     borderopacity="1.0"
     inkscape:pageshadow="2"
     inkscape:pageopacity="0.0"
     inkscape:pagecheckerboard="0"
     inkscape:document-units="mm"
     showgrid="false"
     width="100mm"
     inkscape:zoom="1.5536476"
     inkscape:cx="262.92964"
     inkscape:cy="189.55393"
     inkscape:window-width="1842"
     inkscape:window-height="1057"
     inkscape:window-x="70"
     inkscape:window-y="-8"
     inkscape:window-maximized="1"
     inkscape:current-layer="layer1" />
  <defs
     id="defs2605" />
  <g
     inkscape:label="Слой 1"
     inkscape:groupmode="layer"
     id="layer1">
    <g
       id="g8059"
       transform="matrix(1.1978498,0,0,1.1978498,-11.113002,-9.3136832)">
      <path
         id="rect2640"
         style="fill:#d38d5f;stroke-width:0.999999"
         d="m 102.98438,212.4043 v 59.85742 H 162.8418 V 212.4043 Z m 29.93164,9.25 c 10.20994,0.0177 9.51723,8.9641 9.49023,11.9082 -0.0282,3.05825 -3.8824,8.3734 -5.06836,10.05859 -2.24724,3.19322 -1.24731,7.75639 -1.5293,7.5625 l -5.63086,0.0801 c 0,0 -0.88617,-8.31101 2.33399,-10.9414 3.43768,-2.80808 4.51367,-5.01118 4.58594,-7 0.0875,-2.40754 0.4812,-5.87305 -4.66797,-5.87305 -5.14917,0 -6.59766,4.90625 -6.59766,4.90625 l -4.66601,-2.97656 c 0,0 2.79344,-7.61876 11.50586,-7.72266 0.0817,-9.7e-4 0.16374,-0.002 0.24414,-0.002 z m -3.30079,32.9082 h 7.32032 v 7.32031 h -7.32032 z"
         transform="scale(0.26458333)" />
      <path
         id="rect2722"
         style="fill:#d38d5f;stroke-width:0.999999"
         d="m 162.8418,212.4043 v 12.99609 h 14.78711 V 212.4043 Z m 16.76758,0 v 12.99609 h 26.35156 V 212.4043 Z m 28.33203,0 v 12.99609 h 14.75976 V 212.4043 Z M 162.8418,227.38281 V 241.25 h 28.09961 v -13.86719 z m 30.08008,0 V 241.25 h 29.77929 V 227.38281 Z M 162.8418,243.23242 V 256.75 h 15.01367 v -13.51758 z m 16.99609,0 V 256.75 h 26.34961 v -13.51758 z m 28.33203,0 V 256.75 h 14.53125 v -13.51758 z m -45.32812,15.5 v 13.5293 h 28.32617 v -13.5293 z m 30.30859,0 v 13.5293 h 29.55078 v -13.5293 z"
         transform="scale(0.26458333)" />
      <path
         id="path6241"
         style="fill:#d38d5f;stroke-width:0.264583"
         d="M 43.085889,24.523389 V 40.360664 H 58.923164 V 24.523389 Z m 7.919413,2.447396 c 2.70138,0.0047 2.5181,2.371751 2.510956,3.150711 -0.0075,0.809162 -1.027218,2.215462 -1.341003,2.661335 -0.594582,0.844873 -0.330018,2.052212 -0.404627,2.000912 l -1.489832,0.02119 c 0,0 -0.234466,-2.198954 0.617535,-2.894912 0.909553,-0.742971 1.194242,-1.325874 1.213363,-1.852083 0.02315,-0.636995 0.127318,-1.553911 -1.235067,-1.553911 -1.362385,0 -1.745631,1.298112 -1.745631,1.298112 l -1.234548,-0.787548 c 0,0 0.739097,-2.015797 3.044258,-2.043287 0.02163,-2.57e-4 0.04332,-5.53e-4 0.0646,-5.16e-4 z m -0.873334,8.706961 h 1.936834 v 1.936832 h -1.936834 z" />
      <path
         id="path6243"
         style="fill:#d38d5f;stroke-width:0.264583"
         d="M 58.92362,56.19885 V 72.036125 H 74.760895 V 56.19885 Z m 7.919413,2.447396 c 2.70138,0.0047 2.5181,2.371751 2.510956,3.150711 -0.0075,0.809162 -1.027218,2.215462 -1.341003,2.661335 -0.594582,0.844873 -0.330018,2.052212 -0.404627,2.000912 l -1.489832,0.02119 c 0,0 -0.234466,-2.198954 0.617535,-2.894912 0.909553,-0.742971 1.194242,-1.325874 1.213363,-1.852083 0.02315,-0.636995 0.127318,-1.553911 -1.235067,-1.553911 -1.362385,0 -1.745631,1.298112 -1.745631,1.298112 l -1.234548,-0.787548 c 0,0 0.739097,-2.015797 3.044258,-2.043287 0.02163,-2.57e-4 0.04332,-5.53e-4 0.0646,-5.16e-4 z m -0.873334,8.706961 h 1.936834 v 1.936832 h -1.936834 z" />
      <path
         id="path8031"
         style="fill:#d38d5f;stroke-width:0.264583"
         d="m 11.410159,56.198637 v 3.438549 h 3.912423 v -3.438549 z m 4.436422,0 v 3.438549 h 6.972183 v -3.438549 z m 7.496183,0 v 3.438549 h 3.905186 v -3.438549 z m -11.932605,3.963064 v 3.669027 h 7.434688 v -3.669027 z m 7.958687,0 v 3.669027 h 7.879104 v -3.669027 z m -7.958687,4.193543 v 3.576526 h 3.972367 v -3.576526 z m 4.496882,0 v 3.576526 h 6.971667 v -3.576526 z m 7.496183,0 v 3.576526 h 3.844726 v -3.576526 z m -11.993065,4.101041 v 3.579628 h 7.494632 v -3.579628 z m 8.019147,0 v 3.579628 h 7.818644 v -3.579628 z" />
      <path
         id="path8033"
         style="fill:#d38d5f;stroke-width:0.264583"
         d="m 27.248098,24.523389 v 3.438549 h 3.912423 v -3.438549 z m 4.436422,0 v 3.438549 h 6.972183 v -3.438549 z m 7.496183,0 v 3.438549 h 3.905186 v -3.438549 z m -11.932605,3.963064 v 3.669027 h 7.434688 v -3.669027 z m 7.958687,0 v 3.669027 h 7.879104 v -3.669027 z m -7.958687,4.193543 v 3.576526 h 3.972367 v -3.576526 z m 4.496882,0 v 3.576526 h 6.971667 v -3.576526 z m 7.496183,0 v 3.576526 h 3.844726 v -3.576526 z m -11.993065,4.101041 v 3.579628 h 7.494632 v -3.579628 z m 8.019147,0 v 3.579628 h 7.818644 v -3.579628 z" />
      <path
         id="path8035"
         style="fill:#d38d5f;stroke-width:0.264583"
         d="m 58.923164,24.523389 v 3.438549 h 3.912423 v -3.438549 z m 4.436422,0 v 3.438549 h 6.972183 v -3.438549 z m 7.496183,0 v 3.438549 h 3.905186 v -3.438549 z m -11.932605,3.963064 v 3.669027 h 7.434688 v -3.669027 z m 7.958687,0 v 3.669027 h 7.879104 v -3.669027 z m -7.958687,4.193543 v 3.576526 h 3.972367 v -3.576526 z m 4.496882,0 v 3.576526 h 6.971667 v -3.576526 z m 7.496183,0 v 3.576526 h 3.844726 v -3.576526 z m -11.993065,4.101041 v 3.579628 h 7.494632 v -3.579628 z m 8.019147,0 v 3.579628 h 7.818644 v -3.579628 z" />
      <path
         id="path8037"
         style="fill:#d38d5f;stroke-width:0.264583"
         d="m 74.760895,56.198849 v 3.438549 h 3.912423 v -3.438549 z m 4.436422,0 v 3.438549 H 86.1695 v -3.438549 z m 7.496183,0 v 3.438549 h 3.905186 v -3.438549 z m -11.932605,3.963064 v 3.669027 h 7.434688 v -3.669027 z m 7.958687,0 v 3.669027 h 7.879104 v -3.669027 z m -7.958687,4.193543 v 3.576526 h 3.972367 v -3.576526 z m 4.496882,0 v 3.576526 h 6.971667 v -3.576526 z m 7.496183,0 v 3.576526 h 3.844726 v -3.576526 z m -11.993065,4.101041 v 3.579628 h 7.494632 v -3.579628 z m 8.019147,0 v 3.579628 h 7.818644 v -3.579628 z" />
    </g>
  </g>
</svg>
